<svg height="512pt" viewBox="0 -43 512 512" width="512pt" xmlns="http://www.w3.org/2000/svg"><path d="m421.085938 135.347656c4.140624 0 7.5-3.359375 7.5-7.503906v-68.996094c0-4.140625-3.359376-7.5-7.5-7.5h-8.957032c-4.144531 0-7.5 3.359375-7.5 7.5 0 4.144532 3.355469 7.5 7.5 7.5h1.457032v61.496094c0 4.144531 3.355468 7.503906 7.5 7.503906zm0 0"/><path d="m440.152344.167969c-4.054688-.867188-8.035156 1.714843-8.902344 5.769531-.863281 4.050781 1.71875 8.035156 5.769531 8.898438 34.753907 7.425781 59.980469 38.640624 59.980469 74.226562 0 41.871094-34.066406 75.917969-75.914062 75.917969-41.945313 0-75.914063-34.140625-75.914063-75.917969 0-35.585938 25.222656-66.800781 59.980469-74.226562 4.050781-.863282 6.632812-4.847657 5.769531-8.898438-.867187-4.054688-4.855469-6.636719-8.902344-5.769531-41.25 8.808593-71.847656 45.484375-71.847656 88.894531 0 2.378906.09375 4.738281.273437 7.070312h-306.6875c-13.097656 0-23.757812 10.660157-23.757812 23.757813v282.273437.019532c0 13.097656 10.65625 23.757812 23.757812 23.757812h413.667969c13.101563 0 23.757813-10.660156 23.757813-23.757812v-123.644532c0-4.144531-3.355469-7.503906-7.5-7.503906-4.144532 0-7.5 3.359375-7.5 7.503906v108.21875l-160.132813-125.722656 108.316407-85.039062c8.246093 2.523437 17.40625 3.984375 26.71875 3.984375 8.707031 0 17.339843-1.28125 25.097656-3.507813v67.0625c0 4.140625 3.355468 7.5 7.5 7.5 4.144531 0 7.5-3.359375 7.5-7.5v-72.890625c30.074218-14.84375 50.816406-45.835937 50.816406-81.582031 0-43.441406-30.628906-80.09375-71.847656-88.894531zm-265.019532 260.867187-160.132812 125.722656v-251.441406zm270.445313 144.320313c-1.347656 3.445312-4.652344 5.574219-8.132813 5.582031h-413.6875s-.011718 0-.019531 0c-3.5-.007812-6.785156-2.148438-8.132812-5.582031l171.675781-134.785157 28.964844 22.746094c3.964844 3.113282 9.097656 4.972656 14.347656 4.972656 4.890625 0 10.109375-1.648437 14.34375-4.972656 10.898438-8.554687 17.628906-13.839844 28.96875-22.746094zm-209.902344-123.839844c-2.996093 2.351563-7.175781 2.347656-10.164062 0-6.28125-4.929687-200.574219-157.472656-209.90625-164.800781 1.320312-3.367188 4.582031-5.582032 8.152343-5.582032h309.125c6.269532 25.039063 22.773438 46.183594 45.585938 58.273438-31.710938 24.898438-138.785156 108.960938-142.792969 112.109375zm0 0"/></svg>