<svg id="to-do-list" xmlns="http://www.w3.org/2000/svg" width="384" height="480" viewBox="0 0 384 480">
  <path id="Path_1" data-name="Path 1" d="M344,48h-8V40A40.047,40.047,0,0,0,296,0H40A40.047,40.047,0,0,0,0,40V392a40.047,40.047,0,0,0,40,40h8v8a40.047,40.047,0,0,0,40,40H344a40.047,40.047,0,0,0,40-40V88A40.047,40.047,0,0,0,344,48ZM272,16V52.688L261.656,42.344a8,8,0,0,0-11.312,0L240,52.688V16ZM16,392V40A24,24,0,0,1,40,16H224V72a8,8,0,0,0,13.656,5.656L256,59.313l18.344,18.344A8,8,0,0,0,288,72V16h8a24,24,0,0,1,24,24V392a24,24,0,0,1-24,24H40A24,24,0,0,1,16,392Zm352,48a24,24,0,0,1-24,24H88a24,24,0,0,1-24-24v-8H296a40.047,40.047,0,0,0,40-40V64h8a24,24,0,0,1,24,24Zm0,0"/>
  <path id="Path_2" data-name="Path 2" d="M127.449,77.238A8,8,0,0,0,120,72H56a8,8,0,0,0-8,8v64a8,8,0,0,0,8,8h64a8,8,0,0,0,8-8V99.313l21.656-21.656L138.344,66.344ZM112,136H64V88h48v4.688l-16,16L85.656,98.344,74.344,109.656l16,16a8,8,0,0,0,11.313,0L112,115.313Zm0,0" fill="#20bd67"/>
  <path id="Path_3" data-name="Path 3" d="M138.344,178.344l-10.895,10.895A8,8,0,0,0,120,184H56a8,8,0,0,0-8,8v64a8,8,0,0,0,8,8h64a8,8,0,0,0,8-8V211.313l21.656-21.656ZM112,248H64V200h48v4.688l-16,16L85.656,210.344,74.344,221.656l16,16a8,8,0,0,0,11.313,0L112,227.313Zm0,0" fill="#20bd67"/>
  <path id="Path_4" data-name="Path 4" d="M120,288H56a8,8,0,0,0-8,8v64a8,8,0,0,0,8,8h64a8,8,0,0,0,8-8V296A8,8,0,0,0,120,288Zm-8,64H64V304h48Zm0,0"/>
  <path id="Path_5" data-name="Path 5" d="M160,120h80v16H160Zm0,0" fill="#20bd67"/>
  <path id="Path_6" data-name="Path 6" d="M160,88h48v16H160Zm0,0" fill="#20bd67"/>
  <path id="Path_7" data-name="Path 7" d="M160,232h80v16H160Zm0,0" fill="#20bd67"/>
  <path id="Path_8" data-name="Path 8" d="M160,200h48v16H160Zm0,0" fill="#20bd67"/>
  <path id="Path_9" data-name="Path 9" d="M160,336h80v16H160Zm0,0"/>
  <path id="Path_10" data-name="Path 10" d="M160,304h48v16H160Zm0,0"/>
  <path id="Path_11" data-name="Path 11" d="M224,304h16v16H224Zm0,0"/>
</svg>
